<?xml version="1.0" encoding="utf-8"?>
<!-- Generator: Adobe Illustrator 16.0.0, SVG Export Plug-In . SVG Version: 6.00 Build 0)  -->
<!DOCTYPE svg PUBLIC "-//W3C//DTD SVG 1.1//EN" "http://www.w3.org/Graphics/SVG/1.1/DTD/svg11.dtd">
<svg version="1.1" id="Layer_1" xmlns="http://www.w3.org/2000/svg" xmlns:xlink="http://www.w3.org/1999/xlink" x="0px" y="0px"
	 width="459.873px" height="131.4px" viewBox="0 0 459.873 131.4" enable-background="new 0 0 459.873 131.4" xml:space="preserve">
<g>
	<g>
		<path fill-rule="evenodd" clip-rule="evenodd" d="M239.99,28.397c0.992-0.946,2.215-2.249,3.58-3.382
			c2.96-2.461,6.314-4.111,10.217-4.371c4.862-0.324,8.027,1.634,9.889,6.154c0.58,1.407,0.871,2.93,1.37,4.373
			c0.146,0.425,0.52,1.019,0.853,1.064c0.353,0.049,0.93-0.372,1.157-0.743c3.972-6.454,9.736-9.86,17.275-10.45
			c6.295-0.491,10.721,3.097,10.643,9.409c-0.057,4.702-0.807,9.409-1.437,14.089c-1.088,8.095-2.283,16.178-3.526,24.25
			c-0.24,1.552-0.661,3.182-1.434,4.525c-2.066,3.595-8.355,4.607-11.484,1.825c-0.763-0.678-1.399-2.231-1.18-3.169
			c2.585-11.095,4.107-22.346,5.325-33.652c0.136-1.269,0.428-2.519,0.598-3.785c0.423-3.155-0.974-4.741-4.094-4.382
			c-4.769,0.547-7.894,3.475-10.309,7.407c-2.598,4.232-2.938,9.057-3.749,13.753c-1.122,6.483-2.007,13.009-3.26,19.465
			c-0.925,4.762-3.655,7.451-8.534,6.677c-3.01-0.476-4.992-2.983-4.525-6.001c1.636-10.602,3.349-21.193,4.933-31.802
			c0.337-2.259,0.438-4.592,0.314-6.873c-0.188-3.453-2.312-4.492-5.402-2.93c-4.003,2.023-6.894,5.319-9.363,8.843
			c-1.101,1.573-0.979,4.026-1.33,6.094c-1.555,9.186-3.059,18.38-4.627,27.563c-0.553,3.235-4.041,5.534-7.51,5.068
			c-3.615-0.484-5.863-3.214-5.329-6.864c1.249-8.531,2.66-17.038,3.971-25.561c0.855-5.553,1.655-11.115,2.476-16.673
			c0.817-5.527,7.455-8.387,11.865-4.865C238.688,24.513,239.124,26.688,239.99,28.397z"/>
		<path fill-rule="evenodd" clip-rule="evenodd" d="M418.752,55.206c-2.671,2.287-5.362,4.029-7.242,6.412
			c-1.139,1.442-1.04,3.873-1.454,5.868c-0.363,1.745-0.597,3.521-1.02,5.252c-0.582,2.383-2.186,3.882-4.533,4.451
			c-2.591,0.629-5.286,0.555-7.146-1.487c-0.921-1.012-1.452-2.963-1.23-4.339c2.356-14.688,4.892-29.348,7.395-44.011
			c0.943-5.535,1.908-11.067,2.899-16.594c0.466-2.596,3.567-4.653,7.015-4.453c4.661,0.271,7.19,1.941,6.186,7.251
			c-2.16,11.412-4.121,22.862-6.151,34.297c-0.062,0.353-0.01,0.725-0.01,1.75c1.628-1.763,2.963-3.08,4.148-4.519
			c4.704-5.709,8.914-11.741,12.178-18.418c1.84-3.764,6.095-5.083,9.786-3.291c1.883,0.916,2.893,2.501,2.028,4.356
			c-1.437,3.089-3.182,6.068-5.087,8.897c-1.56,2.312-3.322,4.586-5.395,6.426c-2.447,2.17-2.829,4.579-2.226,7.52
			c1.018,4.959,2.194,9.891,5.042,14.144c1.606,2.401,3.708,4.471,5.601,6.679c0.245,0.287,0.673,0.455,0.837,0.77
			c0.587,1.12,1.732,2.439,1.496,3.392c-0.428,1.72-2.286,2.075-3.958,1.919c-4.875-0.457-8.836-2.668-11.984-6.405
			c-3.499-4.153-5.366-9.068-6.727-14.228C419.107,56.49,419.007,56.137,418.752,55.206z"/>
		<path fill-rule="evenodd" clip-rule="evenodd" d="M362.841,55.747c-0.768,0-1.537,0.041-2.3-0.007
			c-2.573-0.16-2.987-0.015-2.822,2.464c0.192,2.882,0.367,5.951,1.471,8.547c1.801,4.236,6.007,6.137,10.612,5.326
			c2.55-0.449,5.053-1.262,7.515-2.093c2.44-0.825,4.47-0.694,5.281,0.617c0.807,1.304,0.266,3.123-1.79,4.765
			c-1.372,1.095-2.929,2.225-4.579,2.656c-8.04,2.1-15.941,2.103-23.242-2.593c-5.484-3.529-7.693-9.028-8.064-15.144
			c-0.786-12.948,2.986-24.37,13.372-32.643c7.664-6.104,16.653-8.173,26.337-5.743c3.72,0.933,7.059,2.784,7.8,6.982
			c0.627,3.555,0.267,7.153-1.231,10.52c-3.628,8.155-10.052,13.028-18.51,15.244c-3.182,0.833-6.527,1.035-9.8,1.525
			C362.873,56.029,362.857,55.887,362.841,55.747z M380.143,33.908c0-0.255,0.015-0.511-0.001-0.766
			c-0.128-2.068-0.378-4.134-2.402-5.282c-2.39-1.353-4.777-0.81-6.847,0.661c-1.534,1.092-2.871,2.511-4.132,3.93
			c-4.63,5.208-7.195,11.352-7.992,18.248c-0.207,1.785,0.3,2.077,2.059,1.488c5.272-1.765,9.889-4.623,13.99-8.335
			C377.77,41.179,380.075,38.136,380.143,33.908z"/>
		<path fill-rule="evenodd" clip-rule="evenodd" d="M176.469,21.139c1.871,0.175,3.875,0.19,5.791,0.611
			c1.104,0.243,2.301,0.935,3.041,1.785c1.954,2.244,0.745,5.452-2.195,5.693c-2.461,0.201-4.972-0.023-7.448-0.209
			c-3.131-0.236-6.26-0.649-9.206,0.874c-5.255,2.717-6.093,9.892-1.459,13.59c1.869,1.491,4.114,2.511,6.191,3.739
			c1.919,1.134,3.965,2.097,5.744,3.418c5.668,4.206,6.261,9.619,3.714,15.646c-2.846,6.734-8.51,10.014-15.043,11.933
			c-5.596,1.644-11.37,1.582-17.084,0.285c-0.921-0.208-1.833-0.562-2.675-0.995c-2.706-1.389-3.669-3.683-2.572-5.937
			c1.098-2.259,4.162-3.519,6.502-2.448c3.625,1.661,7.42,2.277,11.343,2.142c5.717-0.196,9.426-4.671,8.515-10.333
			c-0.479-2.983-3.028-4.073-5.413-5.174c-4.279-1.973-8.148-4.478-11.175-8.166c-3.963-4.831-4.049-11.448-0.298-16.443
			c4.26-5.673,10.164-8.33,16.935-9.396C171.877,21.41,174.122,21.344,176.469,21.139z"/>
		<path fill-rule="evenodd" clip-rule="evenodd" d="M330.753,21.074c2.079,0.252,4.217,0.294,6.217,0.841
			c1.103,0.301,2.288,1.261,2.887,2.255c1.486,2.463,0.223,4.941-2.641,5.097c-2.66,0.146-5.349-0.148-8.019-0.318
			c-3.132-0.197-6.239-0.505-9.12,1.258c-4.487,2.745-5.408,9.124-1.468,12.625c2.148,1.909,4.911,3.122,7.37,4.691
			c2.248,1.434,4.659,2.7,6.65,4.438c4.159,3.627,4.716,9.493,1.999,14.92c-3.667,7.325-10.106,10.475-17.637,11.931
			c-5.275,1.02-10.578,0.936-15.635-1.154c-2.935-1.213-3.994-3.596-2.952-5.931c1.09-2.44,4.089-3.488,6.81-2.554
			c2.273,0.781,4.583,1.603,6.945,1.964c6.393,0.977,11.417-1.852,11.77-8.38c0.144-2.637-0.834-4.59-3.201-5.807
			c-0.963-0.496-1.913-1.024-2.909-1.445c-4.695-1.985-8.001-5.581-10.74-9.657c-2.969-4.416-2.366-10.051,0.861-14.711
			c4.614-6.661,11.247-9.218,18.956-9.746c1.272-0.087,2.554-0.012,3.831-0.012C330.737,21.277,330.744,21.175,330.753,21.074z"/>
		<path fill-rule="evenodd" clip-rule="evenodd" d="M263.225,105.415c-1.339,1.48-2.324,2.823-3.565,3.865
			c-1.147,0.965-2.481,1.844-3.883,2.345c-2.947,1.053-5.144-0.452-5.532-3.621c-0.45-3.676,0.914-7.04,1.927-10.458
			c0.169-0.568,0.323-1.14,0.109-1.987c-0.503,0.317-1.07,0.564-1.497,0.963c-3.835,3.584-7.122,7.609-9.823,12.126
			c-0.452,0.757-1.632,1.828-2.119,1.668c-1.261-0.415-1.251-1.68-0.857-2.911c0.263-0.822,0.318-1.711,0.08-2.877
			c-0.554,0.399-1.098,0.809-1.66,1.194c-2.556,1.751-5.01,3.688-7.71,5.18c-2.006,1.109-3.392,0.14-3.362-2.207
			c0.026-1.951,0.511-3.896,0.785-5.845c0.089-0.631,0.153-1.266,0.184-1.53c-2.021,1.768-4.06,3.661-6.219,5.408
			c-1.724,1.395-3.56,2.659-5.406,3.891c-1.534,1.025-2.644,0.274-3.094-1.229c-0.313-1.048-0.494-2.356-0.148-3.344
			c1.613-4.624,3.408-9.186,5.201-13.744c0.244-0.618,0.748-1.303,1.315-1.576c0.564-0.272,1.575-0.333,1.994,0.005
			c0.481,0.388,0.829,1.386,0.688,1.991c-0.222,0.955-0.765,1.917-1.411,2.672c-2.143,2.501-3.24,5.436-3.781,8.608
			c-0.127,0.743,0.067,1.542,0.114,2.314c0.805-0.23,1.862-0.215,2.375-0.735c2.538-2.573,5.052-5.188,7.334-7.986
			c1.681-2.062,2.917-4.485,4.512-6.626c0.499-0.668,1.757-1.499,2.267-1.287c1.35,0.56,1.118,1.787,0.656,3.093
			c-1.467,4.136-2.812,8.318-4.087,12.518c-0.181,0.594,0.083,1.69,0.526,1.999c0.417,0.289,1.526,0.072,2.017-0.319
			c2.785-2.22,5.604-4.43,8.133-6.925c0.952-0.94,1.161-2.636,1.7-3.991c0.778-1.95,1.535-3.909,2.336-5.85
			c0.142-0.34,0.421-0.645,0.694-0.905c0.932-0.886,1.913-0.711,2.7,0.128c0.777,0.831,0.891,1.615-0.152,2.589
			c-2.51,2.34-2.702,5.686-3.75,8.655c0.173,0.115,0.346,0.229,0.519,0.343c0.438-0.385,0.883-0.766,1.314-1.158
			c3.344-3.018,6.684-6.037,10.025-9.055c0.235-0.214,0.551-0.374,0.713-0.633c0.562-0.907,1.25-1.631,2.295-0.809
			c0.969,0.765,1.024,1.796,0.436,2.928c-1.027,1.979-2.184,3.929-2.893,6.024c-0.847,2.51-1.553,5.132-1.817,7.756
			c-0.272,2.703,1.682,3.826,3.905,2.289c3.316-2.294,6.238-5.084,8.167-8.7c1.963-3.679,3.943-7.302,7.488-9.768
			c1-0.694,1.79-0.9,2.592,0.225c0.249,0.35,0.635,0.646,1.021,0.845c2.448,1.267,3.115,2.935,2.058,5.424
			c-1.363,3.211-3.81,5.186-7.143,6.093c-0.365,0.099-0.762,0.13-1.142,0.118c-0.85-0.029-2.045-1.062-2.397,0.408
			c-0.31,1.284-0.48,2.88,0.041,3.983c0.335,0.714,2.149,1.277,3.09,1.047c2.135-0.522,4.314-1.304,6.153-2.486
			c2.449-1.574,4.638-3.574,6.831-5.513c0.558-0.493,0.843-1.416,1.026-2.193c0.947-4.01,4.523-7.463,8.558-8.042
			c0.854-0.123,1.828-0.08,2.619,0.222c0.598,0.227,0.991,0.985,1.476,1.507c-0.585,0.371-1.129,0.847-1.763,1.094
			c-1.805,0.703-3.803,1.049-5.438,2.022c-2.36,1.406-2.557,3.565-1.089,5.933c0.899,1.447,1.821,2.923,2.411,4.507
			c0.698,1.88-0.012,3.467-1.667,4.665c-0.704,0.511-1.361,1.16-1.861,1.871c-1.722,2.45-1.692,2.471,0.22,4.741
			c1.704,2.025,0.598,5.139-2.267,6.018c-1.39,0.427-2.888,0.656-4.337,0.657c-0.665,0-1.589-0.627-1.903-1.228
			c-0.219-0.416,0.221-1.556,0.694-1.861c0.603-0.387,1.548-0.381,2.326-0.311c0.645,0.06,1.247,0.592,1.894,0.654
			c0.374,0.037,0.989-0.356,1.143-0.71c0.153-0.348-0.045-0.947-0.27-1.331c-0.247-0.422-0.703-0.723-1.063-1.079
			c-1.009-0.997-1.142-2.047-0.31-3.251c0.49-0.71,0.94-1.491-0.458-1.848c-0.985-0.252-2.107-0.577-1.825-1.973
			c0.238-1.174,2.403-2.423,3.524-1.968c1.15,0.468,2.322,0.635,2.816-0.541c0.317-0.755,0.019-1.962-0.385-2.781
			c-0.634-1.287-1.586-2.417-2.403-3.614c-1.002,0.932-1.992,1.876-3.009,2.792c-3.334,3.001-6.832,5.644-11.28,6.949
			c-3.995,1.174-6.835-0.256-7.534-4.254C263.875,106.453,263.688,106.25,263.225,105.415z M269.279,99.408
			c3.441,0.657,6.896-2.339,6.227-5.069c-0.286-1.167-0.964-2.04-2.138-1.125C271.392,94.754,270.118,96.846,269.279,99.408z"/>
		<path fill-rule="evenodd" clip-rule="evenodd" d="M205.267,22.239c0.422,0.051,1.186,0.131,1.944,0.238
			c2.878,0.402,4.574,2.255,4.204,5.14c-0.65,5.064-1.55,10.096-2.36,15.14c-0.79,4.913-1.575,9.826-2.404,14.732
			c-0.839,4.975-1.64,9.96-2.625,14.907c-0.726,3.643-4.107,5.65-7.846,4.91c-3.57-0.707-5.461-3.412-4.876-7.208
			c1.458-9.466,2.985-18.922,4.476-28.383c0.713-4.536,1.432-9.069,2.1-13.611C198.475,24.045,200.724,22.141,205.267,22.239z"/>
		<path fill-rule="evenodd" clip-rule="evenodd" d="M389.263,100.193c1.562-2.061,2.993-4.243,4.729-6.146
			c1.48-1.625,3.238-3.035,5.035-4.311c0.493-0.351,1.934-0.169,2.289,0.281c0.461,0.585,0.566,1.799,0.279,2.525
			c-0.262,0.657-1.419,1.564-1.902,1.422c-2.266-0.676-3.458,0.609-4.713,2.048c-3.47,3.982-5.962,8.551-8.175,13.306
			c-0.427,0.917-0.881,2.265-2.334,1.604c-1.254-0.571-1.395-1.698-0.878-2.938c0.294-0.705,0.538-1.432,0.751-2.165
			c0.224-0.768,0.383-1.555,0.189-2.581c-0.72,0.58-1.479,1.117-2.149,1.746c-3.226,3.026-6.91,5.202-11.248,6.203
			c-3.213,0.739-5.561-0.752-6.247-3.944c-0.1-0.463-0.363-0.891-0.552-1.335c-0.447,0.287-0.994,0.488-1.327,0.873
			c-1.855,2.146-3.834,4.098-6.66,4.93c-2.594,0.765-4.689-0.137-4.988-2.822c-0.287-2.587,0.188-5.29,0.56-7.909
			c0.192-1.361,0.911-2.644,1.342-3.978c0.104-0.324,0.016-0.711,0.016-1.565c-0.874,0.598-1.509,0.919-2.005,1.387
			c-3.774,3.566-7.025,7.547-9.697,12.016c-0.413,0.69-1.346,1.069-2.04,1.592c-0.272-0.909-0.758-1.813-0.769-2.724
			c-0.013-1.11,0.372-2.223,0.688-3.862c-0.843,0.506-1.394,0.711-1.778,1.087c-3.123,3.045-6.797,5.081-11.008,6.193
			c-4.025,1.065-7.088-1.562-6.666-5.873c0.391-3.976,2.046-7.509,4.485-10.597c1.438-1.822,3.245-3.361,4.968-4.941
			c0.321-0.295,1.146-0.414,1.53-0.213c4.92,2.567,5.398,7.181,1.026,10.661c-1.964,1.563-4.087,3.12-6.928,2.031
			c-0.243-0.093-0.919,0.203-0.932,0.356c-0.127,1.542-0.572,3.237-0.098,4.599c0.488,1.401,2.185,1.244,3.557,0.889
			c3.866-0.998,6.938-3.326,10.095-5.657c3.425-2.529,3.83-6.419,5.298-9.86c0.446-1.046,0.962-2.098,1.639-3
			c0.771-1.023,1.896-1.195,2.787-0.172c0.74,0.85,0.86,1.611-0.12,2.774c-1.251,1.486-1.927,3.483-2.724,5.313
			c-0.472,1.086-0.7,2.278-1.039,3.421c0.172,0.085,0.345,0.17,0.518,0.254c0.354-0.299,0.768-0.55,1.055-0.903
			c3.003-3.678,6.318-6.999,10.45-9.423c0.271-0.158,0.524-0.386,0.712-0.635c0.545-0.719,1.066-1.677,2.108-0.866
			c1.013,0.789,1.179,1.789,0.488,3.041c-1.13,2.06-2.212,4.171-3.046,6.361c-0.791,2.077-1.438,4.255-1.748,6.446
			c-0.155,1.105,0.256,2.985,0.986,3.343c0.908,0.446,2.69,0.059,3.607-0.625c3.64-2.718,6.674-5.974,8.663-10.208
			c1.492-3.181,3.671-5.96,6.722-7.928c0.93-0.6,1.634-0.589,2.297,0.314c0.188,0.256,0.387,0.524,0.636,0.711
			c3.32,2.478,3.772,3.816,1.659,7.094c-1.977,3.063-4.645,5.229-8.715,4.479c-0.361-0.067-1.119,0.204-1.132,0.362
			c-0.115,1.481-0.48,3.1-0.03,4.425c0.447,1.316,2.005,1.282,3.356,0.964c4.032-0.946,7.177-3.354,10.405-5.8
			c2.953-2.238,3.822-5.162,4.287-8.528c0.135-0.968,0.873-1.949,1.57-2.707c0.408-0.444,1.283-0.457,1.949-0.664
			c0.219,0.792,0.773,1.674,0.592,2.361c-0.485,1.838-1.32,3.581-1.939,5.387c-0.206,0.6-0.181,1.28-0.261,1.923
			C388.912,100.091,389.088,100.143,389.263,100.193z M370.92,99.697c2.434-0.036,5.347-2.324,5.494-4.154
			c0.065-0.81-0.396-1.799-0.933-2.448c-0.195-0.236-1.591,0.052-1.938,0.494c-1.165,1.481-2.166,3.107-3.08,4.76
			C370.289,98.665,370.793,99.356,370.92,99.697z M331.828,94.582c-0.229-0.312-0.569-1.153-1.183-1.475
			c-0.406-0.213-1.446,0.124-1.781,0.547c-1.126,1.424-2.121,2.964-3.017,4.543c-0.161,0.286,0.308,1.347,0.625,1.417
			C328.372,100.035,331.794,97.042,331.828,94.582z"/>
		<path fill-rule="evenodd" clip-rule="evenodd" d="M203.165,102.663c-1.362,1.367-2.662,2.807-4.108,4.08
			c-1.522,1.341-3.095,2.663-4.808,3.736c-2.083,1.306-3.89,0.365-3.884-2.13c0.004-1.855,0.326-3.872,1.111-5.532
			c2.914-6.159,7.406-10.762,13.947-13.17c1.807-0.665,3.188-0.112,4.217,1.257c1.11,1.478,0.899,2.913-0.54,4.23
			c-0.503,0.461-0.735,1.316-0.896,2.034c-1.316,5.843-2.446,11.732-3.914,17.535c-1.232,4.872-3.587,9.216-7.241,12.782
			c-3.82,3.729-8.356,4.664-13.389,3.358c-0.877-0.228-1.874-1.026-2.225-1.822c-0.182-0.409,0.858-1.475,1.49-2.098
			c0.941-0.929,1.942-0.445,2.734,0.267c3.079,2.771,5.762,1.85,8.545-0.459c3.111-2.583,5.177-6.025,6.309-9.863
			c1.276-4.326,2.167-8.767,3.209-13.161c0.052-0.221-0.04-0.477-0.065-0.715C203.493,102.882,203.33,102.772,203.165,102.663z
			 M194.306,105.584c0.071,0.158,0.179,0.801,0.428,0.863c0.476,0.117,1.189,0.086,1.531-0.204c1.548-1.309,3.079-2.657,4.468-4.129
			c1.938-2.052,3.761-4.212,5.597-6.358c0.454-0.53,0.771-1.177,1.15-1.771c-0.689-0.364-1.345-0.883-2.078-1.042
			c-0.569-0.124-1.282,0.096-1.85,0.345C198.289,95.603,195.403,99.757,194.306,105.584z"/>
		<path fill-rule="evenodd" clip-rule="evenodd" d="M412.332,106.833c0.726-2.238,1.552-4.77,2.362-7.305
			c0.174-0.542,0.452-1.114,0.412-1.652c-0.25-3.272,1.873-5.308,3.868-7.347c0.473-0.483,1.516-0.41,2.296-0.593
			c0.049,0.88,0.399,1.884,0.098,2.621c-1.494,3.644-3.171,7.215-4.758,10.822c-0.228,0.517-0.449,1.085-0.465,1.637
			c-0.026,0.904,0.117,1.812,0.19,2.721c0.955-0.121,2.174,0.092,2.822-0.417c3.139-2.474,6.141-5.125,9.147-7.762
			c0.333-0.294,0.476-0.889,0.564-1.371c0.816-4.333,4.401-7.813,8.771-8.436c0.498-0.071,1.032-0.078,1.521,0.02
			c1.04,0.209,2.442,0.295,2.232,1.74c-0.068,0.485-1.409,0.82-2.198,1.162c-1.781,0.771-3.744,1.256-5.33,2.312
			c-2.026,1.35-2.04,3.343-0.532,5.706c0.718,1.125,1.597,2.206,2.027,3.438c0.382,1.085,0.513,2.416,0.267,3.528
			c-0.456,2.049-5.837,5.031-7.89,4.4c-0.724-0.223-1.643-1.098-1.741-1.78c-0.158-1.123,2.083-2.469,3.296-2.196
			c0.494,0.112,0.971,0.397,1.461,0.408c1.497,0.036,2.347-1.343,1.667-2.699c-0.571-1.136-1.249-2.219-1.85-3.342
			c-0.65-1.215-1.247-1.094-2.182-0.179c-2.309,2.26-4.674,4.47-7.132,6.564c-0.996,0.847-2.264,1.402-3.459,1.98
			C414.943,112.188,412.275,110.384,412.332,106.833z"/>
		<path fill-rule="evenodd" clip-rule="evenodd" d="M406.1,93.708c-0.892,0.804-1.756,1.645-2.691,2.397
			c-0.439,0.354-1.015,0.54-1.529,0.802c-0.136-0.639-0.604-1.606-0.353-1.862c1.395-1.41,2.925-2.699,4.494-3.918
			c0.69-0.536,1.608-0.768,2.381-1.21c1.549-0.887,2.856-0.253,2.701,1.542c-0.141,1.626-0.654,3.235-1.137,4.811
			c-2.254,7.369-4.453,14.757-6.879,22.069c-1.33,4.01-3.116,7.861-7.003,10.167c-2.271,1.346-6.769-1.063-6.933-3.679
			c-0.071-1.142,1.117-1.982,2.289-1.413c0.88,0.426,1.744,1.124,2.303,1.918c0.94,1.341,1.857,1.213,2.487,0.009
			c1.408-2.69,2.917-5.39,3.84-8.261c2.297-7.155,4.293-14.406,6.392-21.623c0.129-0.44,0.107-0.922,0.155-1.385
			C406.443,93.951,406.272,93.829,406.1,93.708z"/>
		<path fill-rule="evenodd" clip-rule="evenodd" d="M155.547,97.848c-3.504-0.03-6.078-1.756-6.973-4.6
			c-0.711-2.256,0.278-4.09,1.644-5.606c2.127-2.362,6.676-4.328,10.686-2.327c3.667,1.831,4.655,5.661,2.141,8.91
			C161.341,96.43,158.356,97.873,155.547,97.848z"/>
		<path fill-rule="evenodd" clip-rule="evenodd" d="M206.483,17.036c-1.001-0.181-2.034-0.265-2.999-0.561
			c-3.604-1.104-5.138-5.079-3.263-8.336c2.304-4.006,8.026-5.666,12.043-3.492c3.547,1.92,4.283,5.813,1.642,8.854
			C211.959,15.744,209.51,16.949,206.483,17.036z"/>
		<path fill-rule="evenodd" clip-rule="evenodd" d="M310.44,97.857c-2.898-0.062-5.9-1.994-6.532-4.203
			c-0.73-2.56,0.333-5.431,2.881-7.157c2.511-1.701,5.158-2.672,8.265-1.276c2.951,1.326,4.355,4.137,3.284,7.166
			C317.329,95.241,313.459,97.92,310.44,97.857z"/>
		<path fill-rule="evenodd" clip-rule="evenodd" d="M459.873,97.333c-0.263,0.618-0.409,1.327-0.806,1.844
			c-3.618,4.723-7.465,9.2-13.09,11.687c-2.637,1.165-4.707,0.11-5.106-2.769c-0.127-0.913,0.054-1.902,0.263-2.819
			c0.716-3.143,1.13-6.432,2.393-9.35c0.987-2.28,3.031-4.118,4.709-6.061c0.159-0.186,1.342,0.111,1.558,0.475
			c0.282,0.476,0.272,1.329,0.04,1.869c-1.558,3.619-3.25,7.181-4.799,10.803c-0.418,0.975-0.6,2.089-0.698,3.156
			c-0.146,1.581,0.715,2.346,2.033,1.537c2.683-1.647,5.256-3.52,7.671-5.54c1.589-1.327,2.808-3.091,4.232-4.623
			c0.287-0.311,0.752-0.456,1.135-0.677C459.562,97.02,459.717,97.176,459.873,97.333z"/>
		<path fill-rule="evenodd" clip-rule="evenodd" d="M449.268,80.811c0.288-2.04,1.445-3.125,3.019-2.529
			c0.5,0.189,1.076,0.971,1.085,1.49c0.024,1.319-0.22,2.648-0.435,3.961c-0.063,0.394-0.352,1.021-0.6,1.054
			c-0.42,0.055-1.102-0.152-1.299-0.477C450.359,83.197,449.845,81.985,449.268,80.811z"/>
		<path fill-rule="evenodd" clip-rule="evenodd" d="M424.756,81.504c0,0.696,0.074,1.403-0.025,2.084
			c-0.063,0.431-0.306,1.072-0.612,1.171c-0.377,0.124-0.986-0.11-1.352-0.383c-1.219-0.912-2.023-4.056-1.136-5.229
			c0.439-0.581,1.578-0.779,2.419-0.829c0.282-0.016,0.756,0.927,0.899,1.492c0.129,0.522-0.069,1.125-0.124,1.693
			C424.803,81.504,424.779,81.504,424.756,81.504z"/>
		<path fill-rule="evenodd" clip-rule="evenodd" d="M413.562,81.52c-0.344,0.855-0.494,1.476-0.818,1.985
			c-0.73,1.142-1.525,1.32-2.206-0.07c-0.445-0.907-1.011-1.797-1.229-2.76c-0.145-0.651,0.013-1.844,0.407-2.039
			c0.643-0.317,1.896-0.334,2.341,0.094C412.801,79.451,413.11,80.619,413.562,81.52z"/>
		<path fill-rule="evenodd" clip-rule="evenodd" d="M220.194,84.832c0.039-2.271,1.03-2.945,2.45-3.007
			c1.332-0.059,2.479,0.778,2.175,2.004c-0.253,1.019-1.358,2.23-2.336,2.523C221.847,86.544,220.762,85.24,220.194,84.832z"/>
		<path fill-rule="evenodd" clip-rule="evenodd" d="M229.022,86.663c-0.447-0.563-1.335-1.229-1.562-2.073
			c-0.318-1.179,1.188-2.587,2.466-2.548c1.337,0.041,2.199,0.761,2.162,2.118C232.044,85.683,230.924,86.276,229.022,86.663z"/>
	</g>
	<path fill-rule="evenodd" clip-rule="evenodd" fill="#FCC909" d="M69.078,11.332c-1.302,0-2.886-0.231-4.373,0.05
		c-2.691,0.51-5.418,0.888-8.057,1.656c-2.824,0.822-5.557,1.877-8.198,3.185c-1.156,0.573-2.328,1.158-3.449,1.759
		c-0.946,0.506-1.881,1.241-2.79,1.919c-1.83,1.367-3.621,2.77-5.256,4.376c-2.364,2.322-4.672,4.667-6.424,7.522
		c-0.965,1.573-2.001,3.097-2.887,4.726c-1.075,1.977-1.909,4.051-2.666,6.15c-1.57,4.353-2.572,8.83-2.615,13.49
		c-0.01,1.082-0.243,2.151-0.072,3.252c0.083,0.536-0.134,0.92-0.912,0.66c-1.052-0.351-1.968-0.977-3.068-1.249
		c-1.985-0.493-3.989-0.706-5.987-0.43c-1.295,0.178-1.516-0.17-1.428-1.343c0.319-4.262,0.674-8.513,1.72-12.704
		c0.619-2.482,1.422-4.894,2.278-7.271c0.773-2.148,1.837-4.212,2.945-6.25c1.475-2.713,3.096-5.327,4.934-7.771
		c1.833-2.436,3.879-4.734,6.3-6.659c1.455-1.157,2.751-2.514,4.216-3.656c0.859-0.669,1.82-1.25,2.679-1.911
		c0.919-0.708,1.827-1.416,2.814-2.026c1.712-1.059,3.547-1.89,5.305-2.851c1.968-1.078,4.054-1.846,6.125-2.577
		c2.16-0.762,4.364-1.472,6.635-1.958c1.843-0.395,3.716-0.688,5.558-0.923c2.94-0.375,5.936-0.685,8.917-0.362
		c1.846,0.2,3.703,0.14,5.548,0.444c2.927,0.481,5.851,0.951,8.685,1.849c1.988,0.629,4.058,1.111,5.914,2.02
		c2.338,1.146,4.8,2.043,7.004,3.494c1.153,0.758,2.343,1.499,3.592,2.142c1.247,0.641,2.271,1.707,3.413,2.56
		c2.058,1.539,3.911,3.315,5.671,5.166c2.075,2.181,4.064,4.444,5.793,6.938c2.873,4.144,5.28,8.529,7.01,13.252
		c1.28,3.497,2.277,7.084,2.883,10.785c0.618,3.772,1.037,7.552,0.826,11.361c-0.199,3.605-0.547,7.203-1.4,10.738
		c-0.413,1.71-0.823,3.413-1.365,5.089c-1.137,3.518-2.508,6.931-4.279,10.185c-1.91,3.51-4.103,6.846-6.708,9.853
		c-2.785,3.215-5.857,6.162-9.267,8.759c-2.106,1.604-4.305,3.052-6.585,4.35c-2.577,1.467-5.207,2.884-8.068,3.771
		c-0.767,0.238-0.959-0.091-1.249-0.813c-0.703-1.753,0.713-2.345,1.623-3.115c1.107-0.935,2.299-1.765,3.254-2.873
		c2.15-2.496,3.946-5.242,4.604-8.48c0.452-2.224,1.895-3.469,3.393-4.865c3.498-3.26,6.361-7.035,8.753-11.178
		c1.575-2.726,2.844-5.595,3.808-8.571c0.856-2.642,1.529-5.36,1.876-8.126c0.311-2.479,0.504-4.974,0.412-7.482
		c-0.125-3.431-0.52-6.815-1.357-10.158c-0.546-2.179-1.137-4.346-2.035-6.388c-0.566-1.289-1.23-2.554-1.852-3.83
		c-1.086-2.23-2.289-4.388-3.787-6.375c-0.782-1.038-1.693-1.958-2.533-2.941c-1.706-1.998-3.47-3.912-5.506-5.592
		c-2.083-1.718-4.27-3.257-6.656-4.509c-1.846-0.968-3.655-2.05-5.591-2.792c-2.196-0.843-4.431-1.625-6.755-2.116
		C76.736,11.914,73.106,10.979,69.078,11.332z"/>
	<path fill-rule="evenodd" clip-rule="evenodd" fill="#02B7D4" d="M69.867,92.711c0.016,3.613-1.074,6.968-2.56,10.168
		c-0.98,2.111-2.402,4.001-4.041,5.69c-0.578,0.596-1.18,1.17-1.77,1.751c-0.584,0.575-1.065,0.538-1.686,0.171
		c-3.115-1.84-6.29-1.625-9.281,0.124c-1.795,1.049-3.223,2.653-3.838,4.753c-0.246,0.837-0.728,1.107-1.538,1.095
		c-5.832-0.093-11.028-1.894-15.597-5.572c-1.715-1.38-3.259-2.935-4.462-4.714c-2.082-3.08-3.614-6.438-4.231-10.181
		c-0.28-1.695-0.228-3.385-0.375-5.072c-0.051-0.587,0.314-0.79,0.684-1.013c1.617-0.971,3.241-1.923,4.548-3.323
		c3.532-3.784,5.177-8.202,4.556-13.395c-0.022-0.186-0.109-0.398,0.096-0.523c0.24-0.146,0.485-0.088,0.729,0.04
		c3.944,2.061,7.869,1.979,11.852,0.031c2.105-1.03,3.701-2.566,5.026-4.426c0.473-0.665,0.933-0.9,1.769-0.708
		c3.352,0.767,6.525,1.936,9.382,3.883c2.156,1.47,4.015,3.254,5.614,5.315c2.475,3.19,4.014,6.803,4.816,10.739
		C69.91,89.248,69.85,90.986,69.867,92.711z"/>
	<path fill-rule="evenodd" clip-rule="evenodd" fill="#02B7D4" d="M96.38,90.5c-0.089,3.85-0.851,7.041-2.52,10.069
		c-1.467,2.661-3.479,4.777-5.753,6.7c-0.572,0.483-1.042,0.526-1.617-0.26c-3.342-4.569-7.855-6.355-13.437-5.368
		c-0.562,0.099-1.095,0.351-1.643,0.525c-0.198,0.063-0.394,0.298-0.609,0.082c-0.211-0.212-0.138-0.459-0.032-0.712
		c1.566-3.731,2.126-7.621,1.876-11.648c-0.211-3.401-1.09-6.629-2.557-9.688c-1.122-2.34-2.448-4.568-4.312-6.414
		c-0.5-0.495-0.182-0.691,0.201-0.932c1.815-1.139,3.816-1.816,5.889-2.254c3.058-0.646,6.104-0.537,9.131,0.289
		c4.157,1.133,7.607,3.325,10.441,6.58C94.814,81.344,96.287,85.874,96.38,90.5z"/>
	<path fill-rule="evenodd" clip-rule="evenodd" fill="#02B7D4" d="M13.938,61.122c7.542,0.114,13.512,5.934,13.842,13.316
		c0.368,8.226-6.37,14.607-14.085,14.459C6.126,88.752,0.262,82.893,0.009,75.492C-0.272,67.283,6.28,61.206,13.938,61.122z"/>
	<path fill-rule="evenodd" clip-rule="evenodd" fill="#02B7D4" d="M75.769,125.339c-5.638,0.329-10.597-4.701-10.51-10.375
		c0.091-5.93,4.603-10.475,10.464-10.522c5.763-0.046,10.549,4.599,10.612,10.471C86.394,120.482,81.505,125.744,75.769,125.339z"/>
	<path fill-rule="evenodd" clip-rule="evenodd" fill="#02B7D4" d="M27.383,60.462c0.314-5.61,5.233-9.835,10.792-9.184
		c5.066,0.594,8.91,4.993,8.617,10.158c-0.314,5.541-4.969,9.676-10.663,9.153C30.814,70.102,27.097,65.39,27.383,60.462z"/>
	<path fill-rule="evenodd" clip-rule="evenodd" fill="#02B7D4" d="M55.292,125.265c-3.63,0.186-6.844-3.265-6.73-6.899
		c0.11-3.515,3.034-6.677,6.818-6.627c3.826,0.05,6.777,3.067,6.781,6.889C62.167,122.339,58.86,125.437,55.292,125.265z"/>
</g>
</svg>
